<?xml version="1.0" encoding="utf-8"?>
<!-- Generator: Adobe Illustrator 26.1.0, SVG Export Plug-In . SVG Version: 6.00 Build 0)  -->
<svg version="1.1" xmlns="http://www.w3.org/2000/svg" xmlns:xlink="http://www.w3.org/1999/xlink" x="0px" y="0px"
	 viewBox="0 0 2000 1720" style="enable-background:new 0 0 2000 1720;" xml:space="preserve">
<style type="text/css">
	.st0{fill:#B5D5E5;}
	.st1{fill:#353535;}
	.st2{fill:#71B3F4;}
	.st3{fill:#398DBC;}
	.st4{fill:#479CD6;}
	.st5{fill:#FFF0A9;}
	.st6{fill:#EAD768;}
	.st7{fill:#FFFFFF;}
	.st8{fill:#DCF2FF;}
	.st9{fill:#D8D8D8;}
	.st10{fill:#515151;}
	.st11{fill:#EFF1FA;}
	.st12{fill:#E6B48F;}
	.st13{fill:#DEA481;}
	.st14{fill:#29455C;}
	.st15{fill:#212121;}
	.st16{fill:#C5E6FF;}
	.st17{fill:#2D4D80;}
	.st18{fill:#FFFBF3;}
	.st19{fill:#D09271;}
	.st20{fill:#222222;}
	.st21{fill:#1F7499;}
	.st22{fill:#518AB7;}
	.st23{fill:#97B9D4;}
	.st24{fill:#465365;}
	.st25{fill:#9FE6B3;}
	.st26{fill:#35599A;}
	.st27{fill:#EDD98A;}
</style>
<g id="_x2018_ëîé_x5F_2">
	<path class="st0" d="M754.4,1318.2c94.2,141.2,231.5,300.9,412.3,319.7c135.2,14.1,251.6-66.3,329-170.9
		c39.3-53.1,86.5-123.4,77-193.1c-6.4-47.2-40.3-83.4-58.6-126c-28.3-66-17-141,11.3-205.3c30.8-69.9,87.4-107,139.9-158.3
		c107.4-104.9,53.5-324.7-22.2-431.9c-102.4-145.1-182.1,33.9-264.4-5.1c-89.8-42.6-114.5-210.4-165.2-239.2
		C1127.7,59.4,974.1,90,876,92.6c-118.2,3.2-207.8,282.5-323.4,313.3c-43.1,11.5-91.6,17.9-123.1,52.3
		c-28.1,30.8-39.7,74.1-45.7,114.3c-15.5,104.9,8.4,211.7,15.6,316.4c7.8,112.6,34.7,196.9,128.5,265.2
		C600,1206.5,703.5,1241.8,754.4,1318.2z"/>
</g>
<g id="_x2018_ëîé_x5F_11">
	<g>
		<path class="st1" d="M551,610.8c0.7,0,0.7-1.1,0-1.1C550.3,609.7,550.3,610.8,551,610.8L551,610.8z"/>
	</g>
	<g>
		<path class="st2" d="M769.2,823.5L368.3,681.4C446.3,895.2,698.4,902.2,769.2,823.5z"/>
	</g>
	<g>
		<path class="st2" d="M368.3,681.4l400.9,142.1c0.1-0.2,0.3-0.3,0.4-0.5C757.2,735.6,568,551.3,368,680.6
			C368.1,680.9,368.2,681.1,368.3,681.4z"/>
	</g>
	<g>
		
			<rect x="602" y="591.8" transform="matrix(0.3337 -0.9427 0.9427 0.3337 -318.222 1080.9347)" class="st3" width="7.1" height="347.5"/>
	</g>
	<g>
		
			<rect x="465.4" y="749.3" transform="matrix(0.9048 -0.4259 0.4259 0.9048 -273.1114 284.2094)" class="st3" width="67.2" height="7.1"/>
	</g>
	<g>
		
			<rect x="526.6" y="664" transform="matrix(0.8896 -0.4567 0.4567 0.8896 -264.4734 320.1167)" class="st3" width="7.1" height="86.5"/>
	</g>
	<g>
		
			<rect x="538.6" y="800.7" transform="matrix(0.9339 -0.3575 0.3575 0.9339 -247.9726 267.1265)" class="st3" width="119.7" height="7.1"/>
	</g>
	<g>
		
			<rect x="632.7" y="687.4" transform="matrix(0.8394 -0.5435 0.5435 0.8394 -300.792 464.8673)" class="st3" width="7.1" height="108.1"/>
	</g>
	<g>
		<path class="st4" d="M755.3,823.9L506.3,564.7C484.2,755.8,671.9,856.5,755.3,823.9z"/>
	</g>
	<g>
		<path class="st2" d="M506.3,564.7l248.9,259.2c0.2-0.1,0.3-0.1,0.5-0.2c23.7-70.7-49.4-281.6-249.4-259.6
			C506.4,564.3,506.3,564.5,506.3,564.7z"/>
	</g>
	<g>
		
			<rect x="650.1" y="571.4" transform="matrix(0.7209 -0.693 0.693 0.7209 -315.2993 653.4009)" class="st3" width="7.1" height="293.6"/>
	</g>
	<g>
		
			<rect x="574.4" y="639.8" transform="matrix(2.487355e-02 -0.9997 0.9997 2.487355e-02 -104.3765 1229.298)" class="st3" width="7.1" height="56.8"/>
	</g>
	<g>
		
			<rect x="615.2" y="609" transform="matrix(1 -9.350372e-03 9.350372e-03 1 -6.0091 5.8133)" class="st3" width="7.1" height="73.1"/>
	</g>
	<g>
		
			<rect x="630.1" y="694.1" transform="matrix(9.911999e-02 -0.9951 0.9951 9.911999e-02 -170.1747 1301.3335)" class="st3" width="7.1" height="101.1"/>
	</g>
</g>
<g id="_x2018_ëîé_x5F_10">
</g>
<g id="_x2018_ëîé_x5F_14">
	<g>
		<path class="st2" d="M1511.8,1312.6c0,0-9.4,13.5-1.8,19.6c7.5,6.1,17.6-6.9,17.6-6.9L1511.8,1312.6z"/>
	</g>
	<g>
		<path class="st5" d="M1637.8,1161.8c45.4,30.3,33.6,89.2-11,105s-77.8,48-77.8,48l-29.8-24c0,0,34-58.5,33.9-96.8
			C1553.1,1155.9,1608.8,1142.5,1637.8,1161.8z"/>
	</g>
	<g>
		<path class="st3" d="M1520,1289.1c0,0-31.6,11.8-4.9,34.6c26.7,22.7,34.7-10.6,34.7-10.6L1520,1289.1z"/>
	</g>
	<g>
		<path class="st2" d="M1535.4,1318.1l-18.1-14.6c-1.3-1-1.5-2.9-0.4-4.1l0,0c1-1.3,2.9-1.5,4.1-0.4l18.1,14.6
			c1.3,1,1.5,2.9,0.4,4.1l0,0C1538.5,1318.9,1536.6,1319.1,1535.4,1318.1z"/>
	</g>
	<g>
		<path class="st2" d="M1529.7,1325.2l-18.1-14.6c-1.3-1-1.5-2.9-0.4-4.1l0,0c1-1.3,2.9-1.5,4.1-0.4l18.1,14.6
			c1.3,1,1.5,2.9,0.4,4.1l0,0C1532.8,1326,1530.9,1326.2,1529.7,1325.2z"/>
	</g>
	<g>
		<path class="st6" d="M1538,1286.4c-0.1-0.1-0.1-0.1-0.2-0.2c-0.9-0.8-0.9-2.2-0.1-3.1c0.2-0.2,17.3-18.8,33.2-39
			c7.3-9.2,12.7-16.7,16.7-22.7c-4.3-4.8-7.9-10.5-8.8-15.8c-0.6-3.5,0.2-6.6,2.1-9c2.1-2.5,5.4-4.2,10-5.1c5.6-1,9.3,0,11,3.1
			c2.3,4.1,0.3,11.1-6.2,22.1c-0.8,1.3-1.7,2.8-2.6,4.2c0.9,0.9,1.8,1.8,2.8,2.6c1.2-1.3,2.3-2.5,3.4-3.7c8.5-8.9,15.1-12.7,20-11.7
			c4.2,0.9,6.7,4.9,7.6,12.1c1.8,14.3-4.7,17.4-8.7,18c-5.7,0.8-13.7-2.4-21.8-8.6c-4.5,5.3-9.7,12.1-16,20.9
			c-14.3,20.3-26.7,41.4-26.8,41.6c-0.6,1-1.9,1.4-3,0.8c-1-0.6-1.4-1.9-0.8-3c0.1-0.2,12.5-21.4,27-41.9
			c5.9-8.3,11.3-15.4,16.2-21.2c-0.8-0.7-1.6-1.4-2.4-2.2c-4.3,6.5-9.8,13.9-16.4,22.2c-16,20.3-33.3,39-33.4,39.2
			C1540.1,1286.9,1538.9,1287,1538,1286.4z M1599.3,1226.3c6.9,5.3,13.9,8.2,18.3,7.6c4.3-0.6,6-5,5-13.2c-0.4-3.5-1.5-7.8-4.2-8.4
			C1616.4,1212,1611.1,1213.1,1599.3,1226.3z M1597.6,1196.1c-1.3-0.9-4.1-0.6-5.8-0.3c-9.8,1.8-8.9,7.3-8.6,9.1
			c0.6,3.6,3.1,8.2,6.9,12.7c9.4-15,8.7-19.6,8.1-20.9C1598,1196.5,1597.8,1196.3,1597.6,1196.1z"/>
	</g>
	<g>
		<path class="st5" d="M1668.3,1134.2c-3.5-2.3-20.3,19.4-16.9,21.1C1654.6,1156.9,1671.8,1136.5,1668.3,1134.2z"/>
	</g>
	<g>
		<path class="st5" d="M1707,1187.9c-0.9-4.1-28.1-0.6-26.9,2.9C1681.3,1194.3,1707.8,1192,1707,1187.9z"/>
	</g>
	<g>
		<path class="st5" d="M1598.3,1125c4.1-0.9,0.6-28.1-2.9-26.9C1591.8,1099.3,1594.1,1125.8,1598.3,1125z"/>
	</g>
	<g>
		<path class="st5" d="M1691.6,1263.8c2.3-3.5-19.4-20.3-21.1-16.9S1689.2,1267.4,1691.6,1263.8z"/>
	</g>
	<g>
		<path class="st5" d="M1549,1149.1c2.3-3.5-19.4-20.3-21.1-16.9C1526.3,1135.5,1546.6,1152.6,1549,1149.1z"/>
	</g>
</g>
<g id="_x2018_ëîé_x5F_8">
</g>
<g id="_x2018_ëîé_x5F_6">
	<g>
		<path class="st2" d="M1302.8,1053.1l322.9-111.2c-5.6-37.9-95.4,21.2-117.2,5.9c-22.1-15.5,42.6-53.4,8.5-52.2
			c-31.9,1.2-89.3,90.8-123.3,84.8c-34-6,41-61.9-2.1-61.7C1348.6,919,1281.8,1005.5,1302.8,1053.1z"/>
	</g>
	<g>
		<path class="st4" d="M1625.7,941.9l-322.9,111.2c0.1,0.2,0.1,0.3,0.2,0.5c21.4,47.5,98.1,84.5,135.7,53.6
			c37.6-31-72.5-33-28.8-58.8c43.8-25.8,121.4,27.6,153,1.3c31.6-26.3-66.3-28.6-28.2-47.3c38.2-18.6,94.6-18.2,91-59
			C1625.8,942.8,1625.7,942.3,1625.7,941.9z"/>
	</g>
	<g>
		
			<rect x="1236.6" y="1012.2" transform="matrix(0.9455 -0.3256 0.3256 0.9455 -253.7836 514.9568)" class="st3" width="349.7" height="7"/>
	</g>
	<g>
		<path class="st3" d="M1518.9,1041.3c-6.2-1.1-14.3-2.8-22.5-5.5c-10.3-3.4-18.9-7.7-25.5-12.7c-8.5-6.5-13.7-14.3-15.3-23.1
			c-2.9-15.4,3.4-34.7,18.8-57.3c11.2-16.5,23-28.5,23.5-29l4.9,4.9c-0.5,0.5-46.5,47.5-40.4,80.2c1.3,7.1,5.6,13.4,12.7,18.9
			c5.9,4.5,13.8,8.5,23.4,11.6c16.6,5.5,32.6,6.8,32.7,6.8l-0.6,6.9C1530.3,1042.9,1525.7,1042.5,1518.9,1041.3z"/>
	</g>
	<g>
		<path class="st3" d="M1408.7,1099c-0.6-0.1-16.1-3.6-33.1-12.3c-10-5.1-18.5-10.9-25.2-17.4c-8.5-8.2-14.1-17.4-16.6-27.2
			c-2.5-9.8-2.4-21,0.2-33.3c2.1-9.7,5.7-20.2,10.8-31.1c8.7-18.5,18.5-31.8,18.9-32.3l5.6,4.2c-0.1,0.1-9.9,13.3-18.3,31.2
			c-7.6,16.2-15.6,39.8-10.5,59.7c9.7,38,69.1,51.7,69.7,51.8L1408.7,1099z"/>
	</g>
	<g>
		<path class="st2" d="M1321.4,992.2L1491,785.9c-23.2-27-48.2,45-64.1,43.9c-15.9-1.1,2-25.4-23.2-22.6
			c-29.5,3.3-25.5,68.9-41.6,79.8c-16.1,10.9-5-27.1-30.4-28.5C1306.3,857,1281.2,965.3,1321.4,992.2z"/>
	</g>
	<g>
		<path class="st4" d="M1491,785.9l-169.7,206.3c0.1,0.1,0.3,0.2,0.4,0.3c40.4,26.7,121.5-17.9,118.7-40.3
			c-2.8-22.4-46.2,12.4-22.2-28.3c9-15.4,60.9-8.7,69.9-32.4c9-23.8-56.8,8.3-23.2-41.2c22.2-32.6,50-33,26.9-63.3
			C1491.6,786.6,1491.3,786.3,1491,785.9z"/>
	</g>
	<g>
		
			<rect x="1231.9" y="916.3" transform="matrix(0.6352 -0.7723 0.7723 0.6352 -206.258 1402.8118)" class="st3" width="300.2" height="7"/>
	</g>
	<g>
		<path class="st3" d="M1418.6,905.6c-7.2-1.3-12.7-4.3-16.4-9.2c-6-7.9-8.9-21.4-8.7-40c0.2-13.5,2-24.6,2.1-25.1l6.9,1.1
			c0,0.1-1.8,11.2-2,24.2c-0.2,16.7,2.3,29,7.3,35.6c6.2,8.3,20.3,7.8,30.9,5.9c12.3-2.2,23-6.7,23.1-6.8l2.7,6.4
			c-0.5,0.2-11.5,4.8-24.5,7.2c-7.8,1.4-14.7,1.7-20.5,0.8C1419.2,905.7,1418.9,905.6,1418.6,905.6z"/>
	</g>
	<g>
		<path class="st3" d="M1362.2,978.7c-8-1.4-15.4-4.8-21.9-10.2c-6.8-5.6-12-13.4-15.3-23.2c-2.6-7.6-4.1-16.5-4.4-26.3
			c-0.6-16.6,2.3-30.1,2.4-30.6l6.8,1.5c-0.1,0.5-10.8,52,15,73.3c10.6,8.7,23.4,11.3,38,7.8c11.3-2.7,19.5-8.2,19.5-8.3l3.9,5.7
			c-0.4,0.3-9.2,6.2-21.6,9.3C1376.8,979.5,1369.2,979.9,1362.2,978.7z"/>
	</g>
</g>
<g id="_x2018_ëîé_x5F_5">
	<circle class="st4" cx="1456" cy="587" r="59.2"/>
	<path class="st7" d="M1429.6,601l57.2-7.6C1498,630.6,1435.6,640.2,1429.6,601z"/>
	<circle class="st7" cx="1430.8" cy="560.2" r="5.2"/>
	<circle class="st7" cx="1474.8" cy="560.2" r="5.2"/>
</g>
<g id="_x2018_ëîé_x5F_4">
	<path class="st2" d="M536.7,1034.8c-5.3,12.7-50.1,43.2-86.6,62.2l7.5,33.1l-29.5-22.7c-9.8,4-17.7,6.2-22.2,5.6
		c-21.2-2.9-69.2-69.7-64.1-89.1c6.8-26.1,108.6-84.3,129.3-85.1C491.8,938.1,544.8,1015.3,536.7,1034.8z"/>
	<path class="st7" d="M406.7,1040l17.5,29.3c0,0,12.6-8,28.9-16c11.3-5.5,21.6-8.9,24.7-14.3c7.7-13.2-5.5-38.2-20-37.7
		c-12.4,0.4-22.3,16.8-23.1,9.1c-0.8-7.8-1.6-19.3-10.5-24c-10.7-5.7-2,11.1-2.3,20C421.5,1018.4,418.8,1027.1,406.7,1040z"/>
</g>
<g id="_x2018_ëîé_x5F_3">
	<g>
		<path d="M1294.1,814.6l-1.4-3.8c3.8-1.4,8.1-2.8,12.6-4.4l1.6-0.5l1.3,3.8l-1.6,0.5C1302.2,811.7,1297.9,813.2,1294.1,814.6z"/>
	</g>
	<g>
		<path d="M1364.6,788.3l-1.6-3.7c9.3-4,18.5-8.1,27.2-12.4l1.8,3.6C1383.2,780.1,1373.9,784.3,1364.6,788.3z M1444.6,746.3
			l-2.2-3.4c8.4-5.4,16.7-11,24.7-16.8l2.4,3.2C1461.5,735.2,1453.1,740.9,1444.6,746.3z M1516,691l-2.7-2.9c1.1-1,2.2-2,3.2-3.1
			c6-5.7,11.8-11.9,17.3-18.5l3.1,2.6c-5.6,6.6-11.5,13-17.6,18.8C1518.2,688.9,1517.1,690,1516,691z M1570,618.6l-3.6-1.8
			c4.4-8.7,8.5-17.9,12.2-27.2l3.7,1.5C1578.7,600.5,1574.5,609.7,1570,618.6z M1599,533l-3.9-0.8c1.9-9.7,3.3-19.6,4.4-29.5l4,0.4
			C1602.4,513.1,1600.9,523.2,1599,533z M1600.9,443c-0.6-9.9-1.5-19.9-2.9-29.7l4-0.6c1.4,9.9,2.4,20,2.9,30.1L1600.9,443z
			 M1113.6,381.8l0-4c9.5,0,19.2-1.5,29-4.4l1.1,3.8C1133.6,380.2,1123.5,381.7,1113.6,381.8z M1056.3,363c-8-6.3-14.8-14.1-20-23.2
			l3.5-2c5,8.6,11.3,16.1,19,22L1056.3,363z M1585,355c-3-9.5-6.3-19-10.1-28.1l3.7-1.5c3.8,9.3,7.2,18.8,10.2,28.4L1585,355z
			 M1196.6,347.7l-2.6-3.1c7.5-6.3,14.5-13.4,21-21l3.1,2.6C1211.4,334,1204.2,341.3,1196.6,347.7z M1027.6,281l-4-0.2
			c0.5-10.1,2.2-20.2,5-30l3.9,1.1C1029.7,261.4,1028.1,271.2,1027.6,281z M1248.8,274.2l-3.8-1.4c3.6-9.6,6-19.3,7.2-28.6l4,0.5
			C1255,254.3,1252.5,264.3,1248.8,274.2z M1547.4,274.1c-5.4-8-11.4-16.1-17.8-23.9l3.1-2.5c6.5,7.9,12.6,16.1,18.1,24.2
			L1547.4,274.1z M1487.9,207.5c-7.4-6.5-15.2-12.8-23.2-18.9l2.4-3.2c8.1,6.1,16,12.5,23.4,19L1487.9,207.5z M1061.2,200.8l-3-2.7
			c6.4-7.1,13.8-14.1,22-20.9l2.5,3.1C1074.7,186.9,1067.4,193.8,1061.2,200.8z M1241.1,188.1c-5-7.5-11.7-14.7-19.8-21.6l2.6-3.1
			c8.4,7.1,15.4,14.7,20.6,22.5L1241.1,188.1z M1414.6,156c-8.7-4.9-17.7-9.5-26.6-13.7l1.7-3.6c9,4.2,18.1,8.9,26.9,13.8
			L1414.6,156z M1132.4,147.2l-1.9-3.5c7.7-4.3,16.1-8.7,25.7-13.4c-4.4-1.7-9-3.4-13.7-5l1.3-3.8c9.9,3.4,19.4,7.1,28.2,11
			l-1.6,3.7c-4-1.8-8.2-3.5-12.5-5.2l1.2,2.4C1149,138.2,1140.3,142.7,1132.4,147.2z M1332.1,121c-9.7-2.9-19.5-5.3-29-7.1l0.8-3.9
			c9.6,1.9,19.5,4.3,29.3,7.2L1332.1,121z M1214.4,112.1l-0.8-3.9c9.5-1.9,19.7-3,30.1-3.4l0.2,4
			C1233.6,109.2,1223.7,110.3,1214.4,112.1z M1084.7,109.2c-9.5-2.1-19.4-4-29.4-5.7l0.7-3.9c10,1.7,20,3.7,29.6,5.8L1084.7,109.2z
			 M995.9,95.9c-10-0.9-20.1-1.5-29.9-1.9l0.2-4c9.9,0.4,20,1.1,30.1,2L995.9,95.9z"/>
	</g>
	<g>
		<g>
			<polygon class="st2" points="1020,60.5 1008.1,79.5 892.1,69.4 			"/>
		</g>
	</g>
	<g>
		<g>
			<polygon class="st2" points="892.1,69.4 997.4,96.2 978.7,124.5 			"/>
		</g>
	</g>
	<g>
		<g>
			<polygon class="st4" points="892.1,69.4 1008.1,79.5 1003.4,121.7 997.4,96.2 			"/>
		</g>
	</g>
	<g>
		<g>
			<polygon class="st3" points="986.4,112.8 1003.4,121.7 997.4,96.2 			"/>
		</g>
	</g>
</g>
<g id="_x2018_ëîé_x5F_1">
	<g>
		
			<rect x="670.8" y="527.5" transform="matrix(0.994 -0.1095 0.1095 0.994 -59.3617 77.3698)" class="st3" width="8" height="103.3"/>
	</g>
	<rect x="689.2" y="465.8" class="st8" width="621.6" height="856"/>
	<rect x="689.2" y="1231.4" class="st7" width="621.6" height="90.4"/>
	<polygon class="st4" points="1226.8,1303.4 1226.8,1247 1274.4,1276.6 	"/>
	<g>
		<rect x="1188.2" y="1231.4" class="st9" width="1.2" height="90.4"/>
	</g>
	<path class="st1" d="M1262.1,1497H737.9c-38.1,0-68.9-30.9-68.9-68.9V365.9c0-38.1,30.9-68.9,68.9-68.9h524.2
		c38.1,0,68.9,30.9,68.9,68.9v1062.1C1331,1466.1,1300.2,1497,1262.1,1497z"/>
	<rect x="691.8" y="379.8" class="st8" width="616.5" height="1034.5"/>
	<path class="st10" d="M1053.8,346.7H946.2c-3.4,0-6.2-2.8-6.2-6.2l0,0c0-3.4,2.8-6.2,6.2-6.2h107.6c3.4,0,6.2,2.8,6.2,6.2l0,0
		C1060,343.9,1057.2,346.7,1053.8,346.7z"/>
	<circle class="st10" cx="1185.2" cy="339.4" r="7.2"/>
</g>
<g id="_x2018_ëîé_x5F_12">
	<rect x="691.8" y="378.8" class="st2" width="616.5" height="313.2"/>
	<g>
		<path class="st3" d="M1165,738.2H723.3c-4.5,0-8.2-3.7-8.2-8.2v-2.7c0-4.5,3.7-8.2,8.2-8.2H1165c4.5,0,8.2,3.7,8.2,8.2v2.7
			C1173.2,734.5,1169.5,738.2,1165,738.2z"/>
	</g>
	<g>
		<path class="st3" d="M1059.5,775.7H723.3c-4.5,0-8.2-3.7-8.2-8.2v-2.7c0-4.5,3.7-8.2,8.2-8.2h336.2c4.5,0,8.2,3.7,8.2,8.2v2.7
			C1067.7,772,1064,775.7,1059.5,775.7z"/>
	</g>
	<g>
		<rect x="718.1" y="481.2" class="st6" width="321.9" height="210.8"/>
	</g>
	<g>
		<rect x="733.1" y="494" class="st11" width="124.8" height="60.8"/>
	</g>
	<g>
		<rect x="733.1" y="571.5" class="st11" width="124.8" height="60.8"/>
	</g>
	<g>
		<rect x="733.1" y="644.1" class="st11" width="124.8" height="47.9"/>
	</g>
	<g>
		<path class="st11" d="M1014.3,511.4H874.7c-2.4,0-4.4-1.9-4.4-4.4v-0.9c0-2.4,1.9-4.4,4.4-4.4h139.6c2.4,0,4.4,1.9,4.4,4.4v0.9
			C1018.7,509.4,1016.7,511.4,1014.3,511.4z"/>
	</g>
	<g>
		<path class="st11" d="M1014.4,529.2H874.8c-2.4,0-4.4-1.9-4.4-4.4v-0.9c0-2.4,1.9-4.4,4.4-4.4h139.6c2.4,0,4.4,1.9,4.4,4.4v0.9
			C1018.8,527.2,1016.8,529.2,1014.4,529.2z"/>
	</g>
	<g>
		<path class="st11" d="M1014.4,547H874.8c-2.4,0-4.4-1.9-4.4-4.4v-0.9c0-2.4,1.9-4.4,4.4-4.4h139.6c2.4,0,4.4,1.9,4.4,4.4v0.9
			C1018.8,545,1016.8,547,1014.4,547z"/>
	</g>
	<g>
		<path class="st11" d="M1014.3,588.9H874.7c-2.4,0-4.4-1.9-4.4-4.4v-0.9c0-2.4,1.9-4.4,4.4-4.4h139.6c2.4,0,4.4,1.9,4.4,4.4v0.9
			C1018.7,587,1016.7,588.9,1014.3,588.9z"/>
	</g>
	<g>
		<path class="st11" d="M1014.4,606.7H874.8c-2.4,0-4.4-1.9-4.4-4.4v-0.9c0-2.4,1.9-4.4,4.4-4.4h139.6c2.4,0,4.4,1.9,4.4,4.4v0.9
			C1018.8,604.8,1016.8,606.7,1014.4,606.7z"/>
	</g>
	<g>
		<path class="st11" d="M1014.4,624.5H874.8c-2.4,0-4.4-1.9-4.4-4.4v-0.9c0-2.4,1.9-4.4,4.4-4.4h139.6c2.4,0,4.4,1.9,4.4,4.4v0.9
			C1018.8,622.6,1016.8,624.5,1014.4,624.5z"/>
	</g>
	<g>
		<path class="st11" d="M1014.3,662.6H874.7c-2.4,0-4.4-1.9-4.4-4.4v-0.9c0-2.4,1.9-4.4,4.4-4.4h139.6c2.4,0,4.4,1.9,4.4,4.4v0.9
			C1018.7,660.6,1016.7,662.6,1014.3,662.6z"/>
	</g>
	<g>
		<path class="st11" d="M1014.4,680.3H874.8c-2.4,0-4.4-1.9-4.4-4.4v-0.9c0-2.4,1.9-4.4,4.4-4.4h139.6c2.4,0,4.4,1.9,4.4,4.4v0.9
			C1018.8,678.4,1016.8,680.3,1014.4,680.3z"/>
	</g>
	<g>
		<path class="st11" d="M1018.6,692H870.6c0.2-0.8,0.6-1.5,1.2-2.1c0.9-0.9,2.1-1.4,3.4-1.4H1014C1016.2,688.5,1018,690,1018.6,692z
			"/>
	</g>
	<g>
		<path class="st12" d="M904.4,533.9c1.1,2.8,7,8.7,14,13.7c4.5,3.3,8.3,5.8,8.3,5.8l9.8-13.9c0,0-6.7-7.9-12.3-12.8
			c-1.2-1.1-3.1-0.5-3.2,1l-0.2,1.3c0.3,0.9,0.4,1.5-0.2,1.6c-2.3,0.3-4.6-4.3-10.3-5.4C904.6,524,903.3,531.1,904.4,533.9z"/>
	</g>
	<g>
		<polygon class="st13" points="1192.7,501.3 1202,542.9 1174.2,556.8 1171.8,517.5 		"/>
	</g>
	<g>
		<path class="st3" d="M1279.3,692h-161.2c-0.6-12.7-3.4-82.8,0.1-106.9c-27.3,14-70.2,49.1-88.1,48.8c-17.9-0.4-108-80.7-108-80.7
			l12.9-16.4c0,0,83.9,71.4,95.2,66.7c11.3-4.7,99.5-65.1,112.3-66.7c5.9-0.7,28.1,1.6,28.1,1.6s7.8,7,17.9,7s15.2-8.6,15.2-8.6
			s9,0.8,21.5,0C1237.5,536,1276.7,536.9,1279.3,692z"/>
	</g>
	<g>
		<path class="st14" d="M1251.8,692h-3.6c4.6-30.9-8-95.7-8.1-96.4l3.5-0.7C1244.1,597.7,1256.3,660.4,1251.8,692z"/>
	</g>
	<g>
		<path class="st12" d="M1164.9,463.7c0,0-15.4,43.7-6.7,54.4c8.7,10.7,44.4-2.7,48.1-14.6c3.7-11.9,2.9-4.6,8.5-11.4
			c5.6-6.8,0.6-29.3-16.4-31.1S1169.3,455.6,1164.9,463.7z"/>
	</g>
	<g>
		<path class="st15" d="M1167.7,464.9c0,0-11.5-4.1-8.3-10.7c3.3-6.6,56-15.6,65.6,18c9.6,33.6-21.5,35.7-24.6,28.1
			c-3-7.5,7.5-14,2-19c-5.5-5-8.9,2.5-15.1,0.2C1181.2,479.2,1177.6,466.2,1167.7,464.9z"/>
	</g>
	<path class="st2" d="M1174.5,888H745c-15.2,0-27.5-12.3-27.5-27.5v-25c0-15.2,12.3-27.5,27.5-27.5h429.5
		c15.2,0,27.5,12.3,27.5,27.5v25C1202,875.7,1189.7,888,1174.5,888z"/>
	<path class="st7" d="M1176.7,851.3H739.7c-1.9,0-3.5-1.6-3.5-3.5l0,0c0-1.9,1.6-3.5,3.5-3.5h436.9c1.9,0,3.5,1.6,3.5,3.5l0,0
		C1180.2,849.7,1178.6,851.3,1176.7,851.3z"/>
	<path class="st7" d="M1002.1,863.5H740c-1.9,0-3.5-1.6-3.5-3.5l0,0c0-1.9,1.6-3.5,3.5-3.5h262.1c1.9,0,3.5,1.6,3.5,3.5l0,0
		C1005.6,861.9,1004,863.5,1002.1,863.5z"/>
	<path class="st7" d="M1176.9,875.5h-201c-1.9,0-3.5-1.6-3.5-3.5l0,0c0-1.9,1.6-3.5,3.5-3.5h201c1.9,0,3.5,1.6,3.5,3.5l0,0
		C1180.4,873.9,1178.8,875.5,1176.9,875.5z"/>
	<path class="st7" d="M948.9,875.5h-29c-1.9,0-3.5-1.6-3.5-3.5l0,0c0-1.9,1.6-3.5,3.5-3.5h29c1.9,0,3.5,1.6,3.5,3.5l0,0
		C952.4,873.9,950.8,875.5,948.9,875.5z"/>
	<path class="st7" d="M892.1,875.5H739.9c-1.9,0-3.5-1.6-3.5-3.5l0,0c0-1.9,1.6-3.5,3.5-3.5h152.2c1.9,0,3.5,1.6,3.5,3.5l0,0
		C895.6,873.9,894,875.5,892.1,875.5z"/>
	<path class="st4" d="M1222.9,988.6H741.4c-15.2,0-27.5-12.3-27.5-27.5v-25c0-15.2,12.3-27.5,27.5-27.5h481.5
		c15.2,0,27.5,12.3,27.5,27.5v25C1250.4,976.3,1238.1,988.6,1222.9,988.6z"/>
	<path class="st16" d="M924.7,935.7H738.1c-2.9,0-5.3-2.4-5.3-5.3l0,0c0-2.9,2.4-5.3,5.3-5.3h186.7c2.9,0,5.3,2.4,5.3,5.3l0,0
		C930,933.4,927.6,935.7,924.7,935.7z"/>
	<path class="st7" d="M978.5,949.9H736.1c-1.9,0-3.5-1.6-3.5-3.5l0,0c0-1.9,1.6-3.5,3.5-3.5h242.3c1.9,0,3.5,1.6,3.5,3.5l0,0
		C982,948.3,980.4,949.9,978.5,949.9z"/>
	<path class="st7" d="M1222.9,949.9h-221.4c-1.9,0-3.5-1.6-3.5-3.5l0,0c0-1.9,1.6-3.5,3.5-3.5h221.4c1.9,0,3.5,1.6,3.5,3.5l0,0
		C1226.4,948.3,1224.8,949.9,1222.9,949.9z"/>
	<path class="st7" d="M827.7,962.1h-91.3c-1.9,0-3.5-1.6-3.5-3.5l0,0c0-1.9,1.6-3.5,3.5-3.5h91.3c1.9,0,3.5,1.6,3.5,3.5l0,0
		C831.2,960.6,829.6,962.1,827.7,962.1z"/>
	<path class="st7" d="M1002.1,962.1H864.4c-1.9,0-3.5-1.6-3.5-3.5l0,0c0-1.9,1.6-3.5,3.5-3.5h137.7c1.9,0,3.5,1.6,3.5,3.5l0,0
		C1005.6,960.6,1004,962.1,1002.1,962.1z"/>
	<path class="st7" d="M1082.1,962.1h-40.9c-1.9,0-3.5-1.6-3.5-3.5l0,0c0-1.9,1.6-3.5,3.5-3.5h40.9c1.9,0,3.5,1.6,3.5,3.5l0,0
		C1085.6,960.6,1084,962.1,1082.1,962.1z"/>
	<path class="st7" d="M1136.9,962.1H1096c-1.9,0-3.5-1.6-3.5-3.5l0,0c0-1.9,1.6-3.5,3.5-3.5h40.9c1.9,0,3.5,1.6,3.5,3.5l0,0
		C1140.4,960.6,1138.8,962.1,1136.9,962.1z"/>
	<path class="st7" d="M1225.3,974.2H785.5c-1.9,0-3.5-1.6-3.5-3.5l0,0c0-1.9,1.6-3.5,3.5-3.5h439.8c1.9,0,3.5,1.6,3.5,3.5l0,0
		C1228.8,972.6,1227.2,974.2,1225.3,974.2z"/>
	<path class="st2" d="M1118.5,1089.3H741c-15.2,0-27.5-12.3-27.5-27.5v-25c0-15.2,12.3-27.5,27.5-27.5h377.5
		c15.2,0,27.5,12.3,27.5,27.5v25C1146,1077,1133.7,1089.3,1118.5,1089.3z"/>
	<path class="st16" d="M845.9,1036.8H737.7c-2.9,0-5.3-2.4-5.3-5.3v-3.8c0-2.9,2.4-5.3,5.3-5.3h108.3c2.9,0,5.3,2.4,5.3,5.3v3.8
		C851.2,1034.4,848.8,1036.8,845.9,1036.8z"/>
	<path class="st7" d="M862.5,1051H735.7c-1.9,0-3.5-1.6-3.5-3.5l0,0c0-1.9,1.6-3.5,3.5-3.5h126.7c1.9,0,3.5,1.6,3.5,3.5l0,0
		C866,1049.4,864.4,1051,862.5,1051z"/>
	<path class="st7" d="M1009.7,1051H890.5c-1.9,0-3.5-1.6-3.5-3.5l0,0c0-1.9,1.6-3.5,3.5-3.5h119.1c1.9,0,3.5,1.6,3.5,3.5l0,0
		C1013.2,1049.4,1011.6,1051,1009.7,1051z"/>
	<path class="st7" d="M1120.9,1051h-89.1c-1.9,0-3.5-1.6-3.5-3.5l0,0c0-1.9,1.6-3.5,3.5-3.5h89.1c1.9,0,3.5,1.6,3.5,3.5l0,0
		C1124.4,1049.4,1122.8,1051,1120.9,1051z"/>
	<path class="st7" d="M1120.9,1063.2H736c-1.9,0-3.5-1.6-3.5-3.5l0,0c0-1.9,1.6-3.5,3.5-3.5h384.9c1.9,0,3.5,1.6,3.5,3.5l0,0
		C1124.4,1061.6,1122.8,1063.2,1120.9,1063.2z"/>
	<path class="st7" d="M899.7,1075.2H781.9c-1.9,0-3.5-1.6-3.5-3.5v-0.2c0-1.9,1.6-3.5,3.5-3.5h117.8c1.9,0,3.5,1.6,3.5,3.5v0.2
		C903.2,1073.7,901.6,1075.2,899.7,1075.2z"/>
	<path class="st7" d="M1120.9,1076H932.7c-1.9,0-3.5-1.6-3.5-3.5v-0.1c0-1.9,1.6-3.5,3.5-3.5h188.2c1.9,0,3.5,1.6,3.5,3.5v0.1
		C1124.4,1074.4,1122.8,1076,1120.9,1076z"/>
	<path class="st4" d="M1222.9,1189.6H741.4c-15.2,0-27.5-12.3-27.5-27.5v-25c0-15.2,12.3-27.5,27.5-27.5h481.5
		c15.2,0,27.5,12.3,27.5,27.5v25C1250.4,1177.3,1238.1,1189.6,1222.9,1189.6z"/>
	<path class="st16" d="M924.7,1136.7H738.1c-2.9,0-5.3-2.4-5.3-5.3l0,0c0-2.9,2.4-5.3,5.3-5.3h186.7c2.9,0,5.3,2.4,5.3,5.3l0,0
		C930,1134.4,927.6,1136.7,924.7,1136.7z"/>
	<path class="st7" d="M978.5,1150.9H736.1c-1.9,0-3.5-1.6-3.5-3.5l0,0c0-1.9,1.6-3.5,3.5-3.5h242.3c1.9,0,3.5,1.6,3.5,3.5l0,0
		C982,1149.3,980.4,1150.9,978.5,1150.9z"/>
	<path class="st7" d="M1222.9,1150.9h-221.4c-1.9,0-3.5-1.6-3.5-3.5l0,0c0-1.9,1.6-3.5,3.5-3.5h221.4c1.9,0,3.5,1.6,3.5,3.5l0,0
		C1226.4,1149.3,1224.8,1150.9,1222.9,1150.9z"/>
	<path class="st7" d="M827.7,1163.1h-91.3c-1.9,0-3.5-1.6-3.5-3.5l0,0c0-1.9,1.6-3.5,3.5-3.5h91.3c1.9,0,3.5,1.6,3.5,3.5l0,0
		C831.2,1161.6,829.6,1163.1,827.7,1163.1z"/>
	<path class="st7" d="M1002.1,1163.1H864.4c-1.9,0-3.5-1.6-3.5-3.5l0,0c0-1.9,1.6-3.5,3.5-3.5h137.7c1.9,0,3.5,1.6,3.5,3.5l0,0
		C1005.6,1161.6,1004,1163.1,1002.1,1163.1z"/>
	<path class="st7" d="M1082.1,1163.1h-40.9c-1.9,0-3.5-1.6-3.5-3.5l0,0c0-1.9,1.6-3.5,3.5-3.5h40.9c1.9,0,3.5,1.6,3.5,3.5l0,0
		C1085.6,1161.6,1084,1163.1,1082.1,1163.1z"/>
	<path class="st7" d="M1136.9,1163.1H1096c-1.9,0-3.5-1.6-3.5-3.5l0,0c0-1.9,1.6-3.5,3.5-3.5h40.9c1.9,0,3.5,1.6,3.5,3.5l0,0
		C1140.4,1161.6,1138.8,1163.1,1136.9,1163.1z"/>
	<path class="st7" d="M1225.3,1175.2H785.5c-1.9,0-3.5-1.6-3.5-3.5l0,0c0-1.9,1.6-3.5,3.5-3.5h439.8c1.9,0,3.5,1.6,3.5,3.5l0,0
		C1228.8,1173.6,1227.2,1175.2,1225.3,1175.2z"/>
	<path class="st2" d="M1118.5,1290.3H741c-15.2,0-27.5-12.3-27.5-27.5v-25c0-15.2,12.3-27.5,27.5-27.5h377.5
		c15.2,0,27.5,12.3,27.5,27.5v25C1146,1278,1133.7,1290.3,1118.5,1290.3z"/>
	<path class="st16" d="M845.9,1237.8H737.7c-2.9,0-5.3-2.4-5.3-5.3v-3.8c0-2.9,2.4-5.3,5.3-5.3h108.3c2.9,0,5.3,2.4,5.3,5.3v3.8
		C851.2,1235.4,848.8,1237.8,845.9,1237.8z"/>
	<path class="st7" d="M862.5,1252H735.7c-1.9,0-3.5-1.6-3.5-3.5l0,0c0-1.9,1.6-3.5,3.5-3.5h126.7c1.9,0,3.5,1.6,3.5,3.5l0,0
		C866,1250.4,864.4,1252,862.5,1252z"/>
	<path class="st7" d="M1009.7,1252H890.5c-1.9,0-3.5-1.6-3.5-3.5l0,0c0-1.9,1.6-3.5,3.5-3.5h119.1c1.9,0,3.5,1.6,3.5,3.5l0,0
		C1013.2,1250.4,1011.6,1252,1009.7,1252z"/>
	<path class="st7" d="M1120.9,1252h-89.1c-1.9,0-3.5-1.6-3.5-3.5l0,0c0-1.9,1.6-3.5,3.5-3.5h89.1c1.9,0,3.5,1.6,3.5,3.5l0,0
		C1124.4,1250.4,1122.8,1252,1120.9,1252z"/>
	<path class="st7" d="M1120.9,1264.2H736c-1.9,0-3.5-1.6-3.5-3.5l0,0c0-1.9,1.6-3.5,3.5-3.5h384.9c1.9,0,3.5,1.6,3.5,3.5l0,0
		C1124.4,1262.6,1122.8,1264.2,1120.9,1264.2z"/>
	<path class="st7" d="M899.7,1276.2H781.9c-1.9,0-3.5-1.6-3.5-3.5v-0.2c0-1.9,1.6-3.5,3.5-3.5h117.8c1.9,0,3.5,1.6,3.5,3.5v0.2
		C903.2,1274.7,901.6,1276.2,899.7,1276.2z"/>
	<path class="st7" d="M1120.9,1277H932.7c-1.9,0-3.5-1.6-3.5-3.5v-0.1c0-1.9,1.6-3.5,3.5-3.5h188.2c1.9,0,3.5,1.6,3.5,3.5v0.1
		C1124.4,1275.4,1122.8,1277,1120.9,1277z"/>
	<path class="st7" d="M1176.5,863.5h-152.6c-1.9,0-3.5-1.6-3.5-3.5l0,0c0-1.9,1.6-3.5,3.5-3.5h152.6c1.9,0,3.5,1.6,3.5,3.5l0,0
		C1180,861.9,1178.4,863.5,1176.5,863.5z"/>
	<path class="st16" d="M849.8,837.2H741.6c-2.9,0-5.3-2.4-5.3-5.3v-3.8c0-2.9,2.4-5.3,5.3-5.3h108.3c2.9,0,5.3,2.4,5.3,5.3v3.8
		C855.1,834.8,852.7,837.2,849.8,837.2z"/>
	<rect x="691.8" y="1324" class="st7" width="616.5" height="90.2"/>
	<polygon class="st4" points="1226.8,1396 1226.8,1339.6 1274.4,1369.2 	"/>
	<g>
		<rect x="1188.2" y="1324" class="st9" width="1.2" height="90.4"/>
	</g>
</g>
<g id="_x2018_ëîé_x5F_13">
	<g>
		<path class="st6" d="M613.9,320.3c0,0,54.1,62.9,54.8,86.9c0,0,72.2-38.8,107-23.7c1.1-40.4,77.4-66.9,77.4-66.9
			s-50.1-42.8-66.8-87.4C769.6,184.5,613.9,320.3,613.9,320.3z"/>
	</g>
	<g>
		<path class="st5" d="M515.3,365.8c0,0,177.5-47.5,216.7-47.9c23.4-34.4,76.5-130.6,141.3-161.8c0,0-147.7,40-239.6,47.5
			C606.4,237,587.3,319.7,515.3,365.8z"/>
	</g>
	<g>
		<polygon class="st17" points="536.4,360.3 554.4,428.8 557.9,428 540.9,359.1 		"/>
	</g>
	<g>
		<path class="st6" d="M556,425.7c14.1-4.4,18.1,3.3,20.4,26.1c2.3,22.8-17.3,49.5-17.3,49.5s8.6-27,0.3-37.9
			C550.9,452.4,535.9,432,556,425.7z"/>
	</g>
</g>
<g id="_x2018_ëîé_x5F_15">
	<path class="st4" d="M1561,280.9c-0.4,0.5-0.9,1.1-1.5,1.6c7.4-13.8-32.6-126.8-49.7-131.1c-14.9-3.7-69.2,6.7-87.8,20.8l0,0
		l-9.2,10.8c1.3-1,2.9-2,4.5-2.9c2.1-1.2,4.3-2.3,6.8-3.4c23.7-10.6,63.8-17.4,76.2-14.3c15.6,3.9,50.5,98.7,50.6,125.5
		c0,0.4,0,0.8,0,1.1c-0.1,2.2-0.4,3.9-1.1,4.9c-8.5,11.9-85.7,34.7-95.4,29.8c-9.8-4.9-53.9-116.1-47.7-133.5
		c0.2-0.6,0.5-1.1,0.8-1.7l0,0l0,0c3.6-6.8,5-8.9,14.5-16.9c16.5-14,74.2-26.1,89.6-22.3C1528.8,153.7,1569.5,269,1561,280.9z"/>
	<path class="st4" d="M1559.5,282.5c-1.9,1.7-4.8,3.5-8.6,5.4c-0.2-26.8-35-121.6-50.6-125.5c-12.5-3.1-52.6,3.7-76.2,14.3
		c-2.5,1.1-4.8,2.2-6.8,3.4c-1.7,1-3.2,1.9-4.5,2.9l9.2-10.8l0,0c18.6-14.1,73-24.6,87.8-20.8C1526.9,155.7,1567,268.7,1559.5,282.5
		z"/>
	<g>
		
			<rect x="1439.8" y="212" transform="matrix(0.9512 -0.3087 0.3087 0.9512 4.9697 464.8987)" class="st1" width="64" height="9.4"/>
	</g>
	<path class="st18" d="M1559,276.1c-0.1,0.1-0.1,0.3-0.2,0.4c-1.3,1.8-4.3,3.8-8.4,5.9c0-0.3,0-0.7,0-1.1
		c-0.1-25.5-34.6-115.8-50.2-119.5c-12.4-2.9-52.6,3.7-76.3,13.9c-2.5,1-4.8,2.2-6.8,3.3c-1.7,0.9-4.5,2.8-4.5,2.8
		c0.1-2.7,5.4-7.8,9.3-10.4c23.6-16.2,73-23.7,87.9-20.2C1526.9,155.3,1566.5,262.9,1559,276.1z"/>
	<path class="st2" d="M1523.7,324.3c-0.4,0.5-0.9,1.1-1.5,1.6c7.4-13.8-32.6-126.8-49.7-131.1c-14.9-3.7-69.2,6.7-87.8,20.8l0,0
		l-9.2,10.8c1.3-1,2.9-2,4.5-2.9c2.1-1.2,4.3-2.3,6.8-3.4c23.7-10.6,63.8-17.4,76.2-14.3c15.6,3.9,50.5,98.7,50.6,125.5
		c0,0.4,0,0.8,0,1.1c-0.1,2.2-0.4,3.9-1.1,4.9c-8.5,11.9-85.7,34.7-95.4,29.8c-9.8-4.9-53.9-116.1-47.7-133.5
		c0.2-0.6,0.5-1.1,0.8-1.7l0,0l0,0c3.6-6.8,5-8.9,14.5-16.9c16.5-14,74.2-26.1,89.6-22.3C1491.5,197.2,1532.2,312.4,1523.7,324.3z"
		/>
	<path class="st4" d="M1522.2,326c-1.9,1.7-4.8,3.5-8.6,5.4c-0.2-26.8-35-121.6-50.6-125.5c-12.5-3.1-52.6,3.7-76.2,14.3
		c-2.5,1.1-4.8,2.2-6.8,3.4c-1.7,1-3.2,1.9-4.5,2.9l9.2-10.8l0,0c18.6-14.1,73-24.6,87.8-20.8C1489.6,199.1,1529.7,312.1,1522.2,326
		z"/>
	<path class="st18" d="M1522.2,326c-0.1,0.1-0.1,0.3-0.2,0.4c-1.3,1.8-4.3,4-8.4,6.2c0-0.4,0-0.7,0-1.1
		c-0.2-26.8-35-121.6-50.6-125.5c-12.5-3.1-52.6,3.7-76.2,14.3c-2.5,1.1-4.8,2.2-6.8,3.4c-1.7,1-4.5,2.9-4.5,2.9
		c0.1-2.9,5.4-8.1,9.2-10.8c23.5-16.9,73-24.6,87.8-20.8C1489.6,199.1,1529.7,312.1,1522.2,326z"/>
	<g>
		
			<rect x="1397.7" y="254.9" transform="matrix(0.9512 -0.3087 0.3087 0.9512 -10.3229 454.0003)" class="st1" width="64" height="9.4"/>
	</g>
</g>
<g id="_x2018_ëîé_x5F_16">
	<g>
		<path class="st19" d="M546.1,1206.6l-17.8-4.6l-3,13.7c0,0,12.7,7.7,19,6.7C550.5,1221.3,546.1,1206.6,546.1,1206.6"/>
	</g>
	<g>
		<path class="st4" d="M577.9,1474.3c3.9,10.8-3.4,29.9-0.5,53.3c2.9,23.4,8.8,54.9,8.8,54.9l14.9-0.8c0,0,19.3-109.9,10.8-133
			c-8.4-23.1-33.5-89.8-33.5-89.8l-47.3,9.2c0,0,9,33.9,22.9,65.5C560.7,1448.8,576.3,1469.9,577.9,1474.3z"/>
	</g>
	<g>
		<path class="st2" d="M557.8,1356.3l-39.2,228.4h-15.2c0,0-8.7-83.8-2.2-114.2c0.5-31-13.6-80-2.2-114.2H557.8z"/>
	</g>
	<g>
		<polygon class="st12" points="516.3,1584.7 515.3,1593.9 505.6,1592.9 506.2,1584.7 		"/>
	</g>
	<g>
		<polygon class="st12" points="598.4,1580.8 598.9,1588.6 588.9,1588 588.7,1581.9 		"/>
	</g>
	<g>
		<path class="st5" d="M581.4,1262.8l-0.3,0.2c0.7,22.9,2.2,81.5,0,93.3c-2.7,14.7-82.1,0-82.1,0s-4.5-65.9,0.4-78.4l-13.1-4.8
			c0,0,14.6-41.7,29.8-54.2c15.2-12.5,49.5-1.4,58,5.4c0,0,0,0,0.1,0c0.6-0.4,1.3-0.8,2-1.1c4.5-2.2,8.7-2.1,8.7-2.1l3.2,16.7
			l2,10.4l1.8,9.4c-0.1,0-0.1,0.1-0.2,0.1L581.4,1262.8z"/>
	</g>
	<g>
		<path class="st6" d="M632.7,1597.3c0,0-39.6,2.1-44.3-0.2c-0.9-0.4-1.4-1.1-1.7-1.9c0,0,6.1,1.8,46.3,0
			C633,1596.5,632.7,1597.3,632.7,1597.3z"/>
	</g>
	<g>
		<path class="st5" d="M586.7,1595.3c0,0,6.1,1.8,46.3,0c0,0,0,0,0,0c-0.2-3-3.1-8.5-20.9-9.6c-1-0.1-2-0.1-3.1-0.1
			c-2.9-0.1-6.1-0.1-9.7,0.1l-10.9,1.2C588.3,1586.8,585.4,1592.1,586.7,1595.3z"/>
	</g>
	<g>
		<path class="st6" d="M608.9,1589.5l3.1,0l0-3.8c-1-0.1-2-0.1-3.1-0.1L608.9,1589.5z"/>
	</g>
	<g>
		
			<rect x="603" y="1586" transform="matrix(9.005722e-03 1 -1 9.005722e-03 2187.0012 968.2297)" class="st6" width="4" height="3.1"/>
	</g>
	<g>
		<path class="st6" d="M546.9,1602.2c0,0-39.7,0.8-44.2-1.6c-0.9-0.5-1.4-1.1-1.7-1.9c0,0,6,2,46.3,1.5
			C547.2,1601.4,546.9,1602.2,546.9,1602.2z"/>
	</g>
	<g>
		<path class="st5" d="M501,1598.7c0,0,6,2,46.3,1.5c0,0,0,0,0,0c-0.1-3-2.8-8.6-20.6-10.3c-1-0.1-2-0.2-3.1-0.2
			c-2.9-0.2-6.1-0.3-9.7-0.2l-10.9,0.9C502.9,1590.3,499.8,1595.5,501,1598.7z"/>
	</g>
	<g>
		<path class="st6" d="M523.4,1593.6l3.1,0.1l0.1-3.8c-1-0.1-2-0.2-3.1-0.2L523.4,1593.6z"/>
	</g>
	<g>
		
			<rect x="517.5" y="1590" transform="matrix(-2.272594e-02 0.9997 -0.9997 -2.272594e-02 2122.4531 1108.3029)" class="st6" width="4" height="3.1"/>
	</g>
	<g>
		<path class="st12" d="M581.4,1262.8l10.1-5.4C586.7,1260.1,582.9,1262.1,581.4,1262.8z"/>
	</g>
	<g>
		<path class="st12" d="M691.5,1153.2c0.4,1.1,0.8,2.4,1.2,4.1c2.4,9.7-8.8,16.3-14.1,19.7c-5.4,3.4-20.2,22.1-27.5,31.9
			c-7.3,9.7-15.6,25.1-30.2,29.9c-8.7,6.8-20.6,13.9-29.2,18.6l-1.8-9.4l-2-10.4l-3.2-16.7c8-1.5,17.6-2.5,22-3.2
			c5.7-0.9,12-9.8,12-9.8s26-19.2,39.9-28.7c13.9-9.5,14.2-12.6,21.3-21.1c4.2-5.1,6.8-7.7,8.6-7.9c0.6-0.1,12.6-10.7,14.3-8.2
			C704.5,1144.5,691.1,1152.1,691.5,1153.2z"/>
	</g>
	<g>
		<path class="st20" d="M554.2,1169.3c0,0,0.5-7.4-14.4-11.7c-28.5-8.1-26.1,14.8-23.9,24.4c2.2,9.7,9.2,11.3,12.8,11.4
			C532.2,1193.6,554.2,1169.3,554.2,1169.3z"/>
	</g>
	<g>
		<path class="st12" d="M528,1202.7l1.1-14.7c0,0-7.1,0.1-6.6-4.4c0.9-7.4,8-1.5,8-1.5s-1.6-11.3,1.2-12.5
			c2.8-1.2,21.4-2.7,22.4-0.5c1,2.2,11.5,26.2,6.2,33.9c-5.3,7.6-12.5,4.5-12.5,4.5S531.3,1202.9,528,1202.7z"/>
	</g>
	<g>
		<path class="st21" d="M561.8,1332.3h-86.1c-0.7,0-1.2-0.5-1.2-1.2v-12.7c0-0.7,0.5-1.2,1.2-1.2h86.1c0.7,0,1.2,0.5,1.2,1.2v12.7
			C563,1331.7,562.5,1332.3,561.8,1332.3z"/>
	</g>
	<g>
		<path class="st22" d="M564.3,1347.4h-91.9c-0.7,0-1.2-0.5-1.2-1.2v-12.7c0-0.7,0.5-1.2,1.2-1.2h91.9c0.7,0,1.2,0.5,1.2,1.2v12.7
			C565.5,1346.8,565,1347.4,564.3,1347.4z"/>
	</g>
	<g>
		<path class="st4" d="M560.6,1362.5h-90.3c-0.7,0-1.2-0.5-1.2-1.2v-12.7c0-0.7,0.5-1.2,1.2-1.2h90.3c0.7,0,1.2,0.5,1.2,1.2v12.7
			C561.8,1361.9,561.2,1362.5,560.6,1362.5z"/>
	</g>
	<g>
		<path class="st5" d="M564.3,1377.6h-91.9c-0.7,0-1.2-0.5-1.2-1.2v-12.7c0-0.7,0.5-1.2,1.2-1.2h91.9c0.7,0,1.2,0.5,1.2,1.2v12.7
			C565.5,1377,565,1377.6,564.3,1377.6z"/>
	</g>
	<g>
		<rect x="546.7" y="1362.5" class="st23" width="0.8" height="15.1"/>
	</g>
	<g>
		<rect x="488" y="1362.5" class="st23" width="0.8" height="15.1"/>
	</g>
	<g>
		<rect x="551.3" y="1332.3" class="st23" width="0.8" height="15.1"/>
	</g>
	<g>
		<rect x="485.9" y="1332.3" class="st23" width="0.8" height="15.1"/>
	</g>
	<g>
		<rect x="543.7" y="1317.2" class="st24" width="0.8" height="15.1"/>
	</g>
	<g>
		<rect x="543.7" y="1347.4" class="st25" width="0.8" height="15.1"/>
	</g>
	<g>
		<rect x="483.8" y="1347.4" class="st25" width="0.8" height="15.1"/>
	</g>
	<g>
		<path class="st12" d="M512.5,1282.4l-22.6-8c0,0-9.5,19.7-11.8,39.3c-2.3,19.6,8.6,29.3,14.4,40c5.7,10.7,13.5,14.1,17.5,19.9
			c3.6,5.2,2,19.2,11.9,21.1c9.8,1.9,17.8-6.5,8.4-12.2c-9.4-5.7-6.1-11.3-15.4-25.9c-9-14.2-7.8-31.9-7.8-31.9l-2.4-11.7
			C504.6,1313.1,519.2,1291.1,512.5,1282.4z"/>
	</g>
	<g>
		<path class="st20" d="M1458.4,1390.9l-17.6,41.9c-0.3,0.6,0.3,1.2,0.9,1l11.8-4.5c2.4-0.9,4.3-2.7,5.3-5.1l18.9-42.6
			c0.3-0.6-0.3-1.2-0.9-1l-13.1,5.1C1461.4,1386.6,1459.4,1388.5,1458.4,1390.9z"/>
	</g>
	<g>
		<polygon class="st12" points="1665.2,1581.5 1683.7,1581.8 1682.9,1567.5 1669.3,1566.7 		"/>
	</g>
	<g>
		<path class="st13" d="M1366.1,1351.7c0,0-7.4,19.7-6.9,22.8c0.5,3.1,23,0,23,0l2.3-13.4L1366.1,1351.7z"/>
	</g>
	<g>
		<path class="st4" d="M1408.1,1586c0,0,16.3,5.6,51.6,3.6c35.3-2,57.5-7.3,77.4-3.6c19.9,3.7,110.5,3.5,129.3-2.1
			c0.8,0.1,3.7-19.1,3.7-19.1l-208.9-25.3L1408.1,1586z"/>
	</g>
	<g>
		<path class="st2" d="M1339.1,1553.8c0,0,11.9,42.7,66.3,33.5s102.3-90.7,102.3-90.7l60.8,87.3l15.1-11.7c0,0-31-118.9-60.3-128.1
			s-122.2,77.5-122.2,77.5L1339.1,1553.8z"/>
	</g>
	<g>
		<polygon class="st12" points="1570.1,1582.7 1575.1,1593.2 1588.5,1589.8 1581.7,1573.6 		"/>
	</g>
	<g>
		<path class="st3" d="M1637,1607.4c0,0-57.8,2.5-64.5-0.8c-1.3-0.6-2.1-1.6-2.5-2.7c0,0,8.8,2.7,67.4,0.6
			C1637.6,1606.2,1637,1607.4,1637,1607.4z"/>
	</g>
	<g>
		<path class="st4" d="M1637.5,1604.5c-58.6,2.1-67.4-0.6-67.4-0.6c-1.8-4.7,2.5-12.3,2.5-12.3l15.9-1.7c5.2-0.2,9.9-0.1,14.1,0
			c1.6,0.1,3.1,0.1,4.5,0.2C1633,1592,1637.2,1600,1637.5,1604.5C1637.5,1604.4,1637.5,1604.4,1637.5,1604.5z"/>
	</g>
	<g>
		<path class="st3" d="M1607.1,1590.1v5.6h-4.5v-5.8C1604.1,1589.9,1605.6,1590,1607.1,1590.1z"/>
	</g>
	<g>
		
			<rect x="1593.9" y="1590.5" transform="matrix(-1.836970e-16 1 -1 -1.836970e-16 3189.6167 -4.1066)" class="st3" width="5.8" height="4.5"/>
	</g>
	<g>
		<path class="st3" d="M1702,1519.1c0,0-1.1,57.8-4.8,64.3c-0.7,1.2-1.7,2-2.9,2.4c0,0,3.2-8.6,4.8-67.2
			C1700.8,1518.5,1702,1519.1,1702,1519.1z"/>
	</g>
	<g>
		<path class="st4" d="M1699.1,1518.5c-1.5,58.6-4.8,67.2-4.8,67.2c-4.8,1.5-12.2-3.3-12.2-3.3l-0.7-16
			C1682.8,1523.8,1693.7,1518.5,1699.1,1518.5C1699.1,1518.5,1699.1,1518.5,1699.1,1518.5z"/>
	</g>
	<g>
		<polygon class="st3" points="1682.9,1547.9 1688.4,1548.3 1688.2,1552.8 1682.3,1552.4 		"/>
	</g>
	<g>
		
			<rect x="1682" y="1556" transform="matrix(0.9981 6.171287e-02 -6.171287e-02 0.9981 99.3781 -101.0092)" class="st3" width="5.8" height="4.5"/>
	</g>
	<g>
		<path class="st12" d="M1404.7,1322.7c0,0,0.8,40.4-9.4,46.9c-10.1,6.5-36-14.5-35.8-25.3c0.2-10.8-1.2-4.6-3.9-11.7
			c-2.8-7.1,7.6-24.4,22.1-21.2C1392.3,1314.5,1403.3,1314.8,1404.7,1322.7z"/>
	</g>
	<g>
		<path class="st20" d="M1366.9,1330.7c4.6-1.2,2.7-12.4,11.5-12.7c8.8-0.2,32.3,8.1,28.6,0.8c-5.7-11.1-21.7-18.1-35.5-14.7
			c-13.8,3.5-20.7,5.9-22.8,20.3c-2.1,14.1,10.4,21.9,13.4,18.2c3-3.7-10.6-11-5.6-14.3C1361.6,1325.1,1362.3,1331.8,1366.9,1330.7z
			"/>
	</g>
	<g>
		<path class="st3" d="M1379.8,1372.9c12.8,5.2,25,46.9,25,82.2c0,35.3,6.7,60.8,6.7,60.8s-36.2,26.4-42,45.1
			c-5.8,18.8-35.3,17.4-42.9-1.8c-7.6-19.2-1.9-71,4.1-120C1336.6,1392.1,1350.4,1360.8,1379.8,1372.9z"/>
	</g>
	<g>
		<path class="st12" d="M1390.9,1430.4c0,0,5.7,40.1,5.8,46.3c6.5-4.1,39.3-33.8,48-38.3c8.7-4.5,0.7-10.5,6.7-20.3
			c6-9.8,19.2-1.3,15.9,4.6c-3.3,6-11.9,21.1-15.3,25.2c-3.4,4.1-49.8,72.9-69.1,71.8s-28.5-69.1-27.2-89.3L1390.9,1430.4z"/>
	</g>
	<g>
		<polygon class="st13" points="1096.3,1577.1 1104,1580.3 1107.8,1568.9 1098.6,1566 		"/>
	</g>
	<g>
		<path class="st3" d="M1107.2,1617.1c0,0,12.3-42.5,11-48.1c-0.2-1.1-0.8-1.8-1.6-2.4c0,0,0.4,7-11.7,50.3
			C1106.2,1617.3,1107.2,1617.1,1107.2,1617.1z"/>
	</g>
	<g>
		<path class="st4" d="M1105,1616.9c12.1-43.2,11.7-50.3,11.7-50.3c-3.2-2.2-9.6-0.3-9.6-0.3l-4.1,11.5
			C1094.3,1609.4,1101,1615.7,1105,1616.9C1104.9,1616.9,1104.9,1616.9,1105,1616.9z"/>
	</g>
	<g>
		<polygon class="st3" points="1099.7,1591.7 1103.9,1592.7 1104.7,1589.3 1100.4,1588.3 		"/>
	</g>
	<g>
		
			<rect x="1101.3" y="1582.8" transform="matrix(0.972 0.2349 -0.2349 0.972 403.1082 -214.8937)" class="st3" width="4.5" height="3.5"/>
	</g>
	<g>
		<polygon class="st13" points="943.3,1641.1 944,1649.9 956.6,1647.8 954.8,1637.8 		"/>
	</g>
	<g>
		<path class="st3" d="M911.1,1671c0,0,45.9-9.4,50.6-13.4c0.9-0.8,1.3-1.7,1.4-2.6c0,0-6.4,3.9-52.9,13.8
			C910.4,1670.2,911.1,1671,911.1,1671z"/>
	</g>
	<g>
		<path class="st4" d="M910.2,1668.8c46.5-9.9,52.9-13.8,52.9-13.8c0.5-4.1-4.4-9.2-4.4-9.2l-12.8,1.8
			C911.9,1655,909.3,1664.5,910.2,1668.8C910.2,1668.8,910.2,1668.8,910.2,1668.8z"/>
	</g>
	<g>
		<polygon class="st3" points="931.2,1651.5 932.3,1655.9 935.9,1655 934.7,1650.4 		"/>
	</g>
	<g>
		
			<rect x="937.4" y="1649.7" transform="matrix(0.2435 0.9699 -0.9699 0.2435 2312.7231 337.825)" class="st3" width="4.7" height="3.7"/>
	</g>
	<g>
		<path class="st13" d="M897.7,1120.7c-0.5,1.7-1.1,5.4-1.8,10.2l-10.6-5.3c1.8-5.3,0.6-6.9,1.7-14.3c1.5-9.7,13.3-10.6,15.2-9.1
			C904,1103.9,899.6,1114,897.7,1120.7z"/>
	</g>
	<g>
		<path class="st13" d="M1088.3,1442.3c-2.5,0-5.4-10.6-8.2-17.1c-0.6-1.4-2.1-4-4.1-7.4l9.3-8.3c2.6,9.3,4.4,8.4,9,16.1
			C1099.3,1434.1,1090.7,1442.3,1088.3,1442.3z"/>
	</g>
	<g>
		<path class="st26" d="M884.4,1125.2l0.9,0.4c-0.6,1.7-1.4,3.8-2.8,6.6c-0.7,1.4-1.6,3.3-2.7,5.5
			C882.5,1130.3,884.4,1125.2,884.4,1125.2z"/>
	</g>
	<g>
		<path class="st26" d="M897.2,1131.6c0,0-1.7,7.6-3.7,17.4c0.9-6.6,1.7-12.9,2.4-18.1L897.2,1131.6z"/>
	</g>
	<g>
		<path class="st12" d="M975.5,1246.8c0,0,7.4-16.6,1-18.2c-6.4-1.6-8-6.4-1.6-17.6c6.4-11.2,11.2-22.4,27.2-16
			c16,6.4,17.6,22.4,11.2,28.8c-6.4,6.4-18.5,18.3-21.3,30"/>
	</g>
	<g>
		<path class="st27" d="M998.1,1418.4c0,0,8,1.6,20.8-8c20.8,27.2-9,79.2,12.8,100.9c24,24,67.3,52.9,67.3,52.9l-1.6,14.4
			c0,0-88.1-25.6-99.3-56.1c-11.2-30.4-32-76.9-32-76.9S960.2,1416,998.1,1418.4z"/>
	</g>
	<g>
		<path class="st5" d="M933.2,1398.4c0,0-17.6,76.9-9.6,133c8,56.1,17.6,110.6,17.6,110.6l14.4-4.2c0,0,8.1-88.8,0.1-112.8
			c-8-24,32.5-88.5,30.9-106.2C986.6,1418.8,970.1,1419.2,933.2,1398.4z"/>
	</g>
	<g>
		<path class="st4" d="M1087.9,1407.2l-2.6,2.3l-9.3,8.3l-2.5,2.2c0,0-6-12.6-14.1-29.2c-5.1-10.4-11-22.4-16.7-33.8
			c-11.5-23-22.5-43.9-25.3-46c-6.4-4.8,1.6,99.3,1.6,99.3s-9.1,12.1-37.6,9c-28.2-3.1-48.9-21.8-48.9-21.8s11.2-117,0-134.6
			c-8.1-12.8-39-37.4-56.6-53c-6.7-5.9-11.4-10.5-12.3-12.7c-2.3-5.8,9.5-40.5,16.3-59.6c1.1-2.2,2-4,2.7-5.5
			c1.3-2.8,2.2-4.9,2.8-6.6l10.6,5.3c-0.7,5.1-1.6,11.5-2.4,18.1c0,0,0,0.1,0,0.1c-2.7,13-5.8,29.8-6,37.3c0,1.2,0,2.2,0.1,2.8
			c1.6,8,56.1,44.9,56.1,44.9s80.1,30.4,88.1,40.1c4.3,5.1,19.9,42.5,33.6,76.4c5.3,13.2,10.3,25.8,14.3,35.7
			C1084.6,1398.9,1087.9,1407.2,1087.9,1407.2z"/>
	</g>
	<g>
		<path d="M981.3,1210.4c3.1,2.5,6.2-3.7,9.3-0.9c3.1,2.8-9.6,17.1-8.4,23.6c1.2,6.5,15.8,11.5,24.8,0c9-11.5,19.2-19.8,2.2-35.4
			c-8.5-7.8-28-11.6-24.2-1.6C986,1198.6,978.2,1207.9,981.3,1210.4z"/>
	</g>
</g>
</svg>
